HIERARCHY
ROOT mixamorig:Hips
{
	OFFSET -0.000008 104.274872 1.554316
	CHANNELS 6 Xposition Yposition Zposition Xrotation Yrotation Zrotation
	JOINT mixamorig:Spine
	{
		OFFSET -0.000005 10.181595 0.131519
		CHANNELS 6 Xposition Yposition Zposition Xrotation Yrotation Zrotation
		JOINT mixamorig:Spine1
		{
			OFFSET -0.000000 9.893959 -1.470707
			CHANNELS 6 Xposition Yposition Zposition Xrotation Yrotation Zrotation
			JOINT mixamorig:Spine2
			{
				OFFSET -0.000000 9.220757 -1.370641
				CHANNELS 6 Xposition Yposition Zposition Xrotation Yrotation Zrotation
				JOINT mixamorig:Neck
				{
					OFFSET 0.000001 16.740417 -2.049036
					CHANNELS 6 Xposition Yposition Zposition Xrotation Yrotation Zrotation
					JOINT mixamorig:Head
					{
						OFFSET 0.000000 9.617874 1.685006
						CHANNELS 6 Xposition Yposition Zposition Xrotation Yrotation Zrotation
						JOINT mixamorig:HeadTop_End
						{
							OFFSET 0.000002 22.037354 7.501101
							CHANNELS 6 Xposition Yposition Zposition Xrotation Yrotation Zrotation
							End Site
							{
								OFFSET 0.000168 2310.654297 -282.823242
							}
						}
					}
				}
				JOINT mixamorig:RightShoulder
				{
					OFFSET -4.569970 11.014908 -2.160885
					CHANNELS 6 Xposition Yposition Zposition Xrotation Yrotation Zrotation
					JOINT mixamorig:RightArm
					{
						OFFSET -10.592851 -0.524811 -2.232101
						CHANNELS 6 Xposition Yposition Zposition Xrotation Yrotation Zrotation
						JOINT mixamorig:RightForeArm
						{
							OFFSET -27.841511 0.000031 -0.000004
							CHANNELS 6 Xposition Yposition Zposition Xrotation Yrotation Zrotation
							JOINT mixamorig:RightHand
							{
								OFFSET -28.328831 -0.000015 0.000015
								CHANNELS 6 Xposition Yposition Zposition Xrotation Yrotation Zrotation
								JOINT mixamorig:RightHandThumb1
								{
									OFFSET -2.464806 -1.573990 2.681852
									CHANNELS 6 Xposition Yposition Zposition Xrotation Yrotation Zrotation
									JOINT mixamorig:RightHandThumb2
									{
										OFFSET -3.215179 -1.872803 1.924282
										CHANNELS 6 Xposition Yposition Zposition Xrotation Yrotation Zrotation
										JOINT mixamorig:RightHandThumb3
										{
											OFFSET -2.654831 -1.527969 1.512609
											CHANNELS 6 Xposition Yposition Zposition Xrotation Yrotation Zrotation
											JOINT mixamorig:RightHandThumb4
											{
												OFFSET -2.018814 -1.152008 1.108052
												CHANNELS 6 Xposition Yposition Zposition Xrotation Yrotation Zrotation
												End Site
												{
													OFFSET -188.809540 -114.533607 132.431396
												}
											}
										}
									}
								}
								JOINT mixamorig:RightHandIndex1
								{
									OFFSET -9.108284 -0.517868 2.259835
									CHANNELS 6 Xposition Yposition Zposition Xrotation Yrotation Zrotation
									JOINT mixamorig:RightHandIndex2
									{
										OFFSET -3.699989 0.000000 0.001215
										CHANNELS 6 Xposition Yposition Zposition Xrotation Yrotation Zrotation
										JOINT mixamorig:RightHandIndex3
										{
											OFFSET -2.850006 0.000031 -0.000522
											CHANNELS 6 Xposition Yposition Zposition Xrotation Yrotation Zrotation
											JOINT mixamorig:RightHandIndex4
											{
												OFFSET -2.772186 -0.000015 -0.000020
												CHANNELS 6 Xposition Yposition Zposition Xrotation Yrotation Zrotation
												End Site
												{
													OFFSET -277.218445 0.000000 -0.050231
												}
											}
										}
									}
								}
								JOINT mixamorig:RightHandMiddle1
								{
									OFFSET -9.532516 -0.000031 -0.000023
									CHANNELS 6 Xposition Yposition Zposition Xrotation Yrotation Zrotation
									JOINT mixamorig:RightHandMiddle2
									{
										OFFSET -3.700005 -0.000015 0.003713
										CHANNELS 6 Xposition Yposition Zposition Xrotation Yrotation Zrotation
										JOINT mixamorig:RightHandMiddle3
										{
											OFFSET -2.949974 0.000015 -0.002054
											CHANNELS 6 Xposition Yposition Zposition Xrotation Yrotation Zrotation
											JOINT mixamorig:RightHandMiddle4
											{
												OFFSET -2.946640 0.000000 -0.000156
												CHANNELS 6 Xposition Yposition Zposition Xrotation Yrotation Zrotation
												End Site
												{
													OFFSET -294.664337 0.000000 -0.113670
												}
											}
										}
									}
								}
								JOINT mixamorig:RightHandRing1
								{
									OFFSET -9.103600 -0.043076 -1.865134
									CHANNELS 6 Xposition Yposition Zposition Xrotation Yrotation Zrotation
									JOINT mixamorig:RightHandRing2
									{
										OFFSET -3.379288 0.000000 -0.001055
										CHANNELS 6 Xposition Yposition Zposition Xrotation Yrotation Zrotation
										JOINT mixamorig:RightHandRing3
										{
											OFFSET -2.889687 -0.000015 0.000379
											CHANNELS 6 Xposition Yposition Zposition Xrotation Yrotation Zrotation
											JOINT mixamorig:RightHandRing4
											{
												OFFSET -2.638809 -0.000015 0.000941
												CHANNELS 6 Xposition Yposition Zposition Xrotation Yrotation Zrotation
												End Site
												{
													OFFSET -263.880371 0.000000 0.516020
												}
											}
										}
									}
								}
								JOINT mixamorig:RightHandPinky1
								{
									OFFSET -8.076683 -0.486710 -3.806280
									CHANNELS 6 Xposition Yposition Zposition Xrotation Yrotation Zrotation
									JOINT mixamorig:RightHandPinky2
									{
										OFFSET -3.600014 -0.000015 -0.003747
										CHANNELS 6 Xposition Yposition Zposition Xrotation Yrotation Zrotation
										JOINT mixamorig:RightHandPinky3
										{
											OFFSET -2.099983 0.000000 -0.005739
											CHANNELS 6 Xposition Yposition Zposition Xrotation Yrotation Zrotation
											JOINT mixamorig:RightHandPinky4
											{
												OFFSET -2.115768 -0.000031 -0.003680
												CHANNELS 6 Xposition Yposition Zposition Xrotation Yrotation Zrotation
												End Site
												{
													OFFSET -211.577087 0.000000 -0.350686
												}
											}
										}
									}
								}
							}
						}
					}
				}
				JOINT mixamorig:LeftShoulder
				{
					OFFSET 4.570447 11.014725 -2.160855
					CHANNELS 6 Xposition Yposition Zposition Xrotation Yrotation Zrotation
					JOINT mixamorig:LeftArm
					{
						OFFSET 10.592371 -0.524597 -2.232119
						CHANNELS 6 Xposition Yposition Zposition Xrotation Yrotation Zrotation
						JOINT mixamorig:LeftForeArm
						{
							OFFSET 27.841532 -0.000031 0.000026
							CHANNELS 6 Xposition Yposition Zposition Xrotation Yrotation Zrotation
							JOINT mixamorig:LeftHand
							{
								OFFSET 28.328846 -0.000061 0.000022
								CHANNELS 6 Xposition Yposition Zposition Xrotation Yrotation Zrotation
								JOINT mixamorig:LeftHandThumb1
								{
									OFFSET 2.466141 -1.576172 2.681732
									CHANNELS 6 Xposition Yposition Zposition Xrotation Yrotation Zrotation
									JOINT mixamorig:LeftHandThumb2
									{
										OFFSET 3.217812 -1.872070 1.916482
										CHANNELS 6 Xposition Yposition Zposition Xrotation Yrotation Zrotation
										JOINT mixamorig:LeftHandThumb3
										{
											OFFSET 2.656029 -1.528778 1.514513
											CHANNELS 6 Xposition Yposition Zposition Xrotation Yrotation Zrotation
											JOINT mixamorig:LeftHandThumb4
											{
												OFFSET 2.020889 -1.154053 1.115139
												CHANNELS 6 Xposition Yposition Zposition Xrotation Yrotation Zrotation
												End Site
												{
													OFFSET 190.885437 -115.081749 130.048782
												}
											}
										}
									}
								}
								JOINT mixamorig:LeftHandIndex1
								{
									OFFSET 9.109314 -0.518021 2.259871
									CHANNELS 6 Xposition Yposition Zposition Xrotation Yrotation Zrotation
									JOINT mixamorig:LeftHandIndex2
									{
										OFFSET 3.699989 0.000000 -0.000322
										CHANNELS 6 Xposition Yposition Zposition Xrotation Yrotation Zrotation
										JOINT mixamorig:LeftHandIndex3
										{
											OFFSET 2.850006 0.000000 0.000352
											CHANNELS 6 Xposition Yposition Zposition Xrotation Yrotation Zrotation
											JOINT mixamorig:LeftHandIndex4
											{
												OFFSET 2.774864 -0.000031 -0.000027
												CHANNELS 6 Xposition Yposition Zposition Xrotation Yrotation Zrotation
												End Site
												{
													OFFSET 277.486267 0.000000 -0.009857
												}
											}
										}
									}
								}
								JOINT mixamorig:LeftHandMiddle1
								{
									OFFSET 9.533394 0.000061 0.000044
									CHANNELS 6 Xposition Yposition Zposition Xrotation Yrotation Zrotation
									JOINT mixamorig:LeftHandMiddle2
									{
										OFFSET 3.699989 -0.000015 -0.000231
										CHANNELS 6 Xposition Yposition Zposition Xrotation Yrotation Zrotation
										JOINT mixamorig:LeftHandMiddle3
										{
											OFFSET 2.949997 -0.000015 -0.000059
											CHANNELS 6 Xposition Yposition Zposition Xrotation Yrotation Zrotation
											JOINT mixamorig:LeftHandMiddle4
											{
												OFFSET 2.952896 0.000031 0.000063
												CHANNELS 6 Xposition Yposition Zposition Xrotation Yrotation Zrotation
												End Site
												{
													OFFSET 295.289337 0.000000 0.022810
												}
											}
										}
									}
								}
								JOINT mixamorig:LeftHandRing1
								{
									OFFSET 9.104523 -0.042999 -1.865074
									CHANNELS 6 Xposition Yposition Zposition Xrotation Yrotation Zrotation
									JOINT mixamorig:LeftHandRing2
									{
										OFFSET 3.150009 -0.000031 0.000043
										CHANNELS 6 Xposition Yposition Zposition Xrotation Yrotation Zrotation
										JOINT mixamorig:LeftHandRing3
										{
											OFFSET 2.949982 -0.000015 0.000040
											CHANNELS 6 Xposition Yposition Zposition Xrotation Yrotation Zrotation
											JOINT mixamorig:LeftHandRing4
											{
												OFFSET 2.644348 0.000000 0.000057
												CHANNELS 6 Xposition Yposition Zposition Xrotation Yrotation Zrotation
												End Site
												{
													OFFSET 264.434631 0.000000 0.012105
												}
											}
										}
									}
								}
								JOINT mixamorig:LeftHandPinky1
								{
									OFFSET 8.077789 -0.486847 -3.806259
									CHANNELS 6 Xposition Yposition Zposition Xrotation Yrotation Zrotation
									JOINT mixamorig:LeftHandPinky2
									{
										OFFSET 3.599953 0.000031 0.014727
										CHANNELS 6 Xposition Yposition Zposition Xrotation Yrotation Zrotation
										JOINT mixamorig:LeftHandPinky3
										{
											OFFSET 2.100021 0.000015 0.007705
											CHANNELS 6 Xposition Yposition Zposition Xrotation Yrotation Zrotation
											JOINT mixamorig:LeftHandPinky4
											{
												OFFSET 2.125504 0.000031 0.007517
												CHANNELS 6 Xposition Yposition Zposition Xrotation Yrotation Zrotation
												End Site
												{
													OFFSET 212.550781 0.000000 0.625752
												}
											}
										}
									}
								}
							}
						}
					}
				}
			}
		}
	}
	JOINT mixamorig:RightUpLeg
	{
		OFFSET -8.207787 -6.751648 -1.599560
		CHANNELS 6 Xposition Yposition Zposition Xrotation Yrotation Zrotation
		JOINT mixamorig:RightLeg
		{
			OFFSET -0.000002 -44.370117 0.345942
			CHANNELS 6 Xposition Yposition Zposition Xrotation Yrotation Zrotation
			JOINT mixamorig:RightFoot
			{
				OFFSET 0.000003 -44.423679 -3.043532
				CHANNELS 6 Xposition Yposition Zposition Xrotation Yrotation Zrotation
				JOINT mixamorig:RightToeBase
				{
					OFFSET -0.000002 -8.728671 10.710558
					CHANNELS 6 Xposition Yposition Zposition Xrotation Yrotation Zrotation
					JOINT mixamorig:RightToe_End
					{
						OFFSET -0.000001 -0.000679 9.278119
						CHANNELS 6 Xposition Yposition Zposition Xrotation Yrotation Zrotation
						End Site
						{
							OFFSET 0.000000 -0.067690 927.812134
						}
					}
				}
			}
		}
	}
	JOINT mixamorig:LeftUpLeg
	{
		OFFSET 8.207793 -6.751686 -1.599556
		CHANNELS 6 Xposition Yposition Zposition Xrotation Yrotation Zrotation
		JOINT mixamorig:LeftLeg
		{
			OFFSET -0.000004 -44.370014 0.346954
			CHANNELS 6 Xposition Yposition Zposition Xrotation Yrotation Zrotation
			JOINT mixamorig:LeftFoot
			{
				OFFSET -0.000001 -44.423672 -3.044401
				CHANNELS 6 Xposition Yposition Zposition Xrotation Yrotation Zrotation
				JOINT mixamorig:LeftToeBase
				{
					OFFSET -0.000002 -8.728669 10.710558
					CHANNELS 6 Xposition Yposition Zposition Xrotation Yrotation Zrotation
					JOINT mixamorig:LeftToe_End
					{
						OFFSET -0.000003 -0.000679 9.278133
						CHANNELS 6 Xposition Yposition Zposition Xrotation Yrotation Zrotation
						End Site
						{
							OFFSET 0.000000 -0.068021 927.813477
						}
					}
				}
			}
		}
	}
}
MOTION
Frames: 3
Frame Time: 0.033333
0.000006 104.270477 1.554256 0.000010 0.000003 -0.000113 -0.000005 10.181587 0.131522 0.000001 -0.000003 0.000084 -0.000000 9.893967 -1.470711 0.000001 0.000000 -0.000000 -0.000000 9.220802 -1.370642 0.000000 -0.000000 -0.000000 0.000001 16.740433 -2.049030 0.000000 -0.000000 -0.000000 0.000000 9.617859 1.685014 0.000000 0.000000 0.000000 0.000002 22.037384 7.501101 0.000000 -0.000000 0.000000 -4.569968 11.014880 -2.160881 0.000008 0.000001 -0.000038 -10.592869 -0.524674 -2.232026 71.042621 7.752072 -5.538010 -27.841532 0.000001 0.000541 -56.874104 116.929587 82.855809 -28.328835 0.000021 0.000028 -0.000319 -0.000044 0.000006 -2.464410 -1.573840 2.682373 -38.927253 -159.235847 10.901107 -3.215257 -1.872528 1.924636 153.279349 34.367169 22.656164 -2.654933 -1.527890 1.513079 152.233483 25.973437 -36.397552 -2.018822 -1.152008 1.108067 -0.000002 0.000003 0.000000 -9.108362 -0.517545 2.260158 106.985153 16.406567 -22.105682 -3.700065 0.000313 0.001542 102.573466 12.462474 -15.485419 -2.850073 0.000380 -0.000222 101.887510 8.832596 -10.873219 -2.772177 -0.000004 -0.000016 -0.000000 0.000001 -0.000001 -9.532579 0.000278 0.000241 95.691251 15.104584 -16.818958 -3.700065 0.000345 0.003949 91.317922 9.553269 -9.680558 -2.950037 0.000355 -0.001832 91.186331 8.166594 -8.329916 -2.946621 -0.000015 -0.000145 -0.000003 -0.000000 -0.000002 -9.103674 -0.042737 -1.864875 95.030225 14.465128 -15.730836 -3.379300 0.000343 -0.000827 92.911569 4.357000 -4.600968 -2.889725 0.000364 0.000619 93.788859 1.948845 -2.127301 -2.638814 -0.000009 0.000936 -0.000000 -0.000002 -0.000001 -8.076731 -0.486368 -3.805994 94.399321 13.940053 -14.884056 -3.599991 0.000309 -0.003499 95.042922 1.488720 -1.276023 -2.100001 0.000331 -0.005505 94.146016 -1.356362 1.668855 -2.115772 -0.000054 -0.003686 0.000004 -0.000004 -0.000005 4.570446 11.014691 -2.160851 -0.000018 0.000010 -0.000021 10.592365 -0.524526 -2.232298 68.277515 3.565095 -2.417619 27.841827 0.000109 -0.000210 100.946624 -65.078992 75.427562 28.328825 -0.000028 0.000024 0.000020 -0.000089 -0.000001 2.466054 -1.576173 2.681897 -25.013509 152.194428 -35.013001 3.217686 -1.871661 1.916384 149.881548 -35.176468 -35.205209 2.656085 -1.528541 1.514432 151.596335 -27.391439 25.837123 2.020887 -1.154065 1.115145 0.000003 0.000004 0.000004 9.109369 -0.517830 2.259719 95.154043 -15.265502 16.671609 3.700046 0.000171 -0.000473 92.751708 -12.542410 13.172065 2.850051 0.000223 0.000225 92.699109 -10.842985 11.361519 2.774889 -0.000047 -0.000027 -0.000002 0.000000 -0.000001 9.533453 0.000250 -0.000108 96.931757 -13.845787 15.600517 3.700057 0.000209 -0.000375 97.064522 -11.338120 12.815265 2.950069 0.000193 -0.000187 97.350802 -15.199075 17.259644 2.952867 -0.000015 0.000067 0.000002 -0.000000 0.000002 9.104564 -0.042817 -1.865231 92.473159 -12.922429 13.489434 3.150051 0.000241 -0.000101 99.140216 -10.760747 12.618598 2.950022 0.000204 -0.000055 100.839957 -13.209495 15.948446 2.644320 0.000016 0.000054 0.000007 -0.000003 -0.000001 8.077819 -0.486711 -3.806401 80.509946 -14.120660 12.461028 3.599986 0.000217 0.014567 84.365076 -11.178731 10.587256 2.100044 0.000210 0.007538 87.742557 -11.673246 11.686909 2.125518 -0.000028 0.007514 0.000000 0.000002 0.000000 -8.207786 -6.751667 -1.599560 -0.077001 -0.000003 0.000080 -0.000002 -44.370110 0.345938 0.153719 -0.000000 -0.000000 0.000000 -44.423679 -3.043532 -0.076700 0.000000 -0.000002 -0.000006 -8.728667 10.710559 -0.000009 -0.000000 -0.000000 -0.000001 -0.000679 9.278123 0.000000 -0.000000 -0.000000 8.207792 -6.751710 -1.599556 -0.074518 -0.000003 0.000081 -0.000002 -44.370014 0.346960 0.148822 0.000002 0.000000 -0.000001 -44.423664 -3.044403 -0.074314 0.000000 -0.000002 -0.000004 -8.728671 10.710558 0.000007 -0.000000 -0.000000 0.000000 -0.000680 9.278137 -0.000000 0.000000 -0.000001 
0.000006 104.270477 1.554256 0.000010 0.000003 -0.000113 -0.000005 10.181587 0.131522 0.000001 -0.000003 0.000084 -0.000000 9.893967 -1.470711 0.000001 0.000000 -0.000000 -0.000000 9.220802 -1.370642 0.000000 -0.000000 -0.000000 0.000001 16.740433 -2.049030 0.000000 -0.000000 -0.000000 0.000000 9.617859 1.685014 0.000000 0.000000 0.000000 0.000002 22.037384 7.501101 0.000000 -0.000000 0.000000 -4.569968 11.014880 -2.160881 0.000008 0.000001 -0.000038 -10.592884 -0.524723 -2.231962 69.142271 19.927453 -13.805172 -27.841513 0.000009 0.000546 -52.564323 113.107953 73.566854 -28.328833 0.000006 0.000024 -0.000322 -0.000043 0.000009 -2.464427 -1.573804 2.682361 -43.611396 -162.694969 0.853504 -3.215290 -1.872642 1.924680 158.424339 29.008957 -12.223509 -2.654960 -1.527866 1.513083 146.370776 26.859632 -39.214585 -2.018822 -1.152008 1.108063 -0.000002 -0.000003 0.000000 -9.108382 -0.517562 2.260129 100.630584 15.936648 -19.206500 -3.700052 0.000331 0.001503 98.342935 11.061755 -12.762374 -2.850046 0.000384 -0.000265 97.355556 7.833426 -8.904553 -2.772164 -0.000000 -0.000019 -0.000001 0.000000 0.000000 -9.532587 0.000275 0.000224 90.355487 14.663516 -14.895049 -3.700064 0.000339 0.003930 88.971724 8.152224 -7.919051 -2.950034 0.000339 -0.001822 90.821811 8.041216 -8.150107 -2.946656 0.000002 -0.000154 -0.000000 0.000000 0.000000 -9.103692 -0.042739 -1.864883 92.086639 13.778796 -14.240027 -3.379307 0.000341 -0.000824 91.406345 5.257296 -5.404509 -2.889748 0.000378 0.000616 96.306753 4.086777 -4.611663 -2.638803 0.000014 0.000939 -0.000002 -0.000001 0.000001 -8.076738 -0.486359 -3.806007 92.104602 13.429152 -13.776350 -3.600006 0.000301 -0.003494 95.664620 4.090146 -4.146921 -2.100013 0.000333 -0.005476 98.109022 2.138592 -2.225044 -2.115765 -0.000041 -0.003675 0.000004 -0.000002 -0.000001 4.570446 11.014691 -2.160851 -0.000018 0.000010 -0.000021 10.592359 -0.524546 -2.232268 68.635977 11.803452 -8.072373 27.841829 0.000080 -0.000200 100.901264 -66.977491 77.402258 28.328825 -0.000029 0.000015 0.000021 -0.000088 -0.000000 2.466191 -1.576108 2.681866 -0.645995 160.563185 -82.059710 3.217793 -1.871707 1.916386 166.322428 -32.353981 -0.779299 2.656113 -1.528621 1.514468 153.734731 -23.776179 47.497313 2.020876 -1.154053 1.115133 0.000001 -0.000001 -0.000001 9.109376 -0.517841 2.259735 95.020991 -18.936670 20.623748 3.700054 0.000175 -0.000472 93.788401 -11.744174 12.559143 2.850053 0.000225 0.000202 91.908849 -7.755477 8.016147 2.774881 -0.000046 -0.000027 0.000002 0.000001 -0.000001 9.533462 0.000222 -0.000082 95.754580 -17.265687 19.051264 3.700039 0.000231 -0.000393 99.294606 -8.192464 9.632924 2.950038 0.000229 -0.000205 98.969345 -8.766356 10.254423 2.952882 -0.000016 0.000067 0.000003 -0.000002 -0.000001 9.104572 -0.042831 -1.865211 93.863465 -15.812359 16.902864 3.150042 0.000240 -0.000095 99.909138 -8.708568 10.355572 2.950010 0.000244 -0.000073 100.469173 -8.118444 9.750813 2.644296 0.000031 0.000054 0.000001 -0.000001 0.000003 8.077820 -0.486689 -3.806417 87.425909 -16.522941 16.367462 3.600006 0.000224 0.014572 89.928634 -12.477394 12.965805 2.100025 0.000198 0.007538 90.513380 -9.925547 10.488829 2.125499 -0.000011 0.007513 -0.000001 -0.000002 -0.000001 -8.207786 -6.751667 -1.599560 -0.077001 -0.000003 0.000080 -0.000002 -44.370110 0.345938 0.153719 -0.000000 -0.000000 0.000000 -44.423679 -3.043532 -0.076700 0.000000 -0.000002 -0.000006 -8.728667 10.710559 -0.000009 -0.000000 -0.000000 -0.000001 -0.000679 9.278123 0.000000 -0.000000 -0.000000 8.207792 -6.751710 -1.599556 -0.074518 -0.000003 0.000081 -0.000002 -44.370014 0.346960 0.148822 0.000002 0.000000 -0.000001 -44.423664 -3.044403 -0.074314 0.000000 -0.000002 -0.000004 -8.728671 10.710558 0.000007 -0.000000 -0.000000 0.000000 -0.000680 9.278137 -0.000000 0.000000 -0.000001 
0.000006 104.270477 1.554256 0.000010 0.000003 -0.000113 -0.000005 10.181587 0.131522 0.000001 -0.000003 0.000084 -0.000000 9.893967 -1.470711 0.000001 0.000000 -0.000000 -0.000000 9.220802 -1.370642 0.000000 -0.000000 -0.000000 0.000001 16.740433 -2.049030 0.000000 -0.000000 -0.000000 0.000000 9.617859 1.685014 0.000000 0.000000 0.000000 0.000002 22.037384 7.501101 0.000000 -0.000000 0.000000 -4.569968 11.014880 -2.160881 0.000008 0.000001 -0.000038 -10.592881 -0.524736 -2.231952 67.663979 21.866531 -14.754501 -27.841513 0.000006 0.000567 -47.402565 110.781434 64.924117 -28.328836 0.000019 0.000027 -0.000317 -0.000045 0.000007 -2.464529 -1.573631 2.682246 -56.267990 -185.722816 -46.547698 -3.215283 -1.872610 1.924678 154.236176 28.843117 -13.160900 -2.654977 -1.527887 1.513074 144.759781 27.356853 -37.273736 -2.018834 -1.152015 1.108056 -0.000004 0.000001 0.000002 -9.108385 -0.517559 2.260127 100.603858 15.117432 -18.218387 -3.700052 0.000328 0.001510 96.703867 10.815203 -12.125758 -2.850067 0.000379 -0.000268 95.001996 7.633382 -8.327343 -2.772166 0.000001 -0.000022 -0.000000 0.000001 0.000001 -9.532593 0.000283 0.000238 94.163057 12.431802 -13.508665 -3.700051 0.000346 0.003957 92.560190 8.133808 -8.410002 -2.950033 0.000334 -0.001812 92.559445 8.207596 -8.574181 -2.946636 0.000015 -0.000155 -0.000006 0.000002 0.000001 -9.103697 -0.042725 -1.864870 95.541137 12.502677 -13.715806 -3.379290 0.000336 -0.000818 94.477936 6.456154 -6.998265 -2.889744 0.000350 0.000651 98.245755 5.549708 -6.461853 -2.638801 -0.000002 0.000938 -0.000002 0.000001 -0.000000 -8.076749 -0.486360 -3.806008 93.174961 13.150090 -13.739749 -3.600008 0.000303 -0.003486 96.748988 5.473035 -5.774256 -2.100003 0.000328 -0.005447 100.285748 3.591036 -4.045785 -2.115767 -0.000043 -0.003682 -0.000003 0.000000 -0.000004 4.570446 11.014691 -2.160851 -0.000018 0.000010 -0.000021 10.592363 -0.524535 -2.232277 67.843340 6.190267 -4.165237 27.841827 0.000077 -0.000189 102.537812 -69.119506 81.314051 28.328823 -0.000028 0.000020 0.000019 -0.000089 0.000000 2.466247 -1.575965 2.681819 22.998005 178.426903 -126.231964 3.217866 -1.871856 1.916430 171.640496 -15.256522 53.250655 2.656095 -1.528667 1.514503 150.101043 -23.740006 55.669040 2.020903 -1.154075 1.115150 0.000002 0.000002 0.000001 9.109410 -0.517840 2.259760 95.601345 -22.054262 24.244591 3.700030 0.000208 -0.000459 94.823373 -10.966173 11.941797 2.850039 0.000249 0.000195 92.770744 -6.800534 7.135486 2.774858 -0.000030 -0.000027 -0.000002 0.000001 -0.000001 9.533467 0.000238 -0.000078 95.598545 -19.243665 21.169516 3.700032 0.000226 -0.000375 97.729079 -7.443060 8.514886 2.950041 0.000220 -0.000206 98.340872 -8.069462 9.336802 2.952873 -0.000013 0.000064 0.000003 0.000000 0.000000 9.104599 -0.042809 -1.865214 95.756329 -17.201034 18.992729 3.150048 0.000237 -0.000108 98.367790 -10.271040 11.883594 2.950024 0.000213 -0.000079 99.055406 -9.354177 10.955992 2.644311 0.000033 0.000062 0.000006 0.000000 -0.000000 8.077852 -0.486688 -3.806381 87.044989 -18.236120 17.899976 3.600013 0.000217 0.014580 89.932268 -15.427587 15.929106 2.100054 0.000205 0.007543 92.101816 -13.130424 14.122279 2.125500 -0.000017 0.007513 -0.000000 0.000003 0.000001 -8.207786 -6.751667 -1.599560 -0.077001 -0.000003 0.000080 -0.000002 -44.370110 0.345938 0.153719 -0.000000 -0.000000 0.000000 -44.423679 -3.043532 -0.076700 0.000000 -0.000002 -0.000006 -8.728667 10.710559 -0.000009 -0.000000 -0.000000 -0.000001 -0.000679 9.278123 0.000000 -0.000000 -0.000000 8.207792 -6.751710 -1.599556 -0.074518 -0.000003 0.000081 -0.000002 -44.370014 0.346960 0.148822 0.000002 0.000000 -0.000001 -44.423664 -3.044403 -0.074314 0.000000 -0.000002 -0.000004 -8.728671 10.710558 0.000007 -0.000000 -0.000000 0.000000 -0.000680 9.278137 -0.000000 0.000000 -0.000001 
